<svg xmlns="http://www.w3.org/2000/svg" width="375" viewBox="0 0 375 375" height="375" version="1.0"><defs><clipPath id="a"><path d="M 124.769531 105.550781 L 241 105.550781 L 241 187.265625 L 124.769531 187.265625 Z M 124.769531 105.550781"/></clipPath></defs><g fill="#FFF"><g><g><path d="M 5.4375 -1.375 C 5.644531 -1.375 5.816406 -1.304688 5.953125 -1.171875 C 6.085938 -1.046875 6.15625 -0.882812 6.15625 -0.6875 C 6.15625 -0.488281 6.085938 -0.320312 5.953125 -0.1875 C 5.816406 -0.0625 5.644531 0 5.4375 0 L 1.609375 0 C 1.398438 0 1.226562 -0.0664062 1.09375 -0.203125 C 0.957031 -0.335938 0.890625 -0.507812 0.890625 -0.71875 L 0.890625 -7.53125 C 0.890625 -7.738281 0.957031 -7.910156 1.09375 -8.046875 C 1.238281 -8.191406 1.421875 -8.265625 1.640625 -8.265625 C 1.835938 -8.265625 2.003906 -8.191406 2.140625 -8.046875 C 2.285156 -7.910156 2.359375 -7.738281 2.359375 -7.53125 L 2.359375 -1.375 Z M 5.4375 -1.375" transform="translate(92.292 251.274)"/></g></g></g><g fill="#FFF"><g><g><path d="M 5.5625 -1.359375 C 5.757812 -1.359375 5.925781 -1.285156 6.0625 -1.140625 C 6.207031 -1.003906 6.28125 -0.847656 6.28125 -0.671875 C 6.28125 -0.472656 6.207031 -0.3125 6.0625 -0.1875 C 5.925781 -0.0625 5.757812 0 5.5625 0 L 1.609375 0 C 1.398438 0 1.226562 -0.0664062 1.09375 -0.203125 C 0.957031 -0.335938 0.890625 -0.507812 0.890625 -0.71875 L 0.890625 -7.53125 C 0.890625 -7.738281 0.957031 -7.910156 1.09375 -8.046875 C 1.226562 -8.191406 1.398438 -8.265625 1.609375 -8.265625 L 5.5625 -8.265625 C 5.757812 -8.265625 5.925781 -8.195312 6.0625 -8.0625 C 6.207031 -7.9375 6.28125 -7.769531 6.28125 -7.5625 C 6.28125 -7.363281 6.210938 -7.203125 6.078125 -7.078125 C 5.941406 -6.960938 5.769531 -6.90625 5.5625 -6.90625 L 2.359375 -6.90625 L 2.359375 -4.890625 L 5.03125 -4.890625 C 5.226562 -4.890625 5.394531 -4.820312 5.53125 -4.6875 C 5.675781 -4.5625 5.75 -4.398438 5.75 -4.203125 C 5.75 -4.003906 5.679688 -3.84375 5.546875 -3.71875 C 5.410156 -3.601562 5.238281 -3.546875 5.03125 -3.546875 L 2.359375 -3.546875 L 2.359375 -1.359375 Z M 5.5625 -1.359375" transform="translate(100.58 251.274)"/></g></g></g><g fill="#FFF"><g><g><path d="M 6.3125 -8.265625 C 6.519531 -8.265625 6.691406 -8.195312 6.828125 -8.0625 C 6.960938 -7.9375 7.03125 -7.773438 7.03125 -7.578125 C 7.03125 -7.367188 6.960938 -7.203125 6.828125 -7.078125 C 6.691406 -6.960938 6.519531 -6.90625 6.3125 -6.90625 L 4.453125 -6.90625 L 4.453125 -0.71875 C 4.453125 -0.507812 4.378906 -0.335938 4.234375 -0.203125 C 4.085938 -0.0664062 3.90625 0 3.6875 0 C 3.457031 0 3.269531 -0.0664062 3.125 -0.203125 C 2.988281 -0.335938 2.921875 -0.507812 2.921875 -0.71875 L 2.921875 -6.90625 L 1.078125 -6.90625 C 0.859375 -6.90625 0.679688 -6.96875 0.546875 -7.09375 C 0.421875 -7.21875 0.359375 -7.378906 0.359375 -7.578125 C 0.359375 -7.773438 0.425781 -7.9375 0.5625 -8.0625 C 0.695312 -8.195312 0.867188 -8.265625 1.078125 -8.265625 Z M 6.3125 -8.265625" transform="translate(108.986 251.274)"/></g></g></g><g fill="#FFF"><g><g><path d="M 3.546875 0.125 C 2.972656 0.125 2.46875 0.0507812 2.03125 -0.09375 C 1.59375 -0.238281 1.179688 -0.476562 0.796875 -0.8125 C 0.578125 -1 0.46875 -1.207031 0.46875 -1.4375 C 0.46875 -1.613281 0.535156 -1.769531 0.671875 -1.90625 C 0.804688 -2.050781 0.96875 -2.125 1.15625 -2.125 C 1.300781 -2.125 1.4375 -2.078125 1.5625 -1.984375 C 1.875 -1.722656 2.175781 -1.53125 2.46875 -1.40625 C 2.769531 -1.289062 3.128906 -1.234375 3.546875 -1.234375 C 3.984375 -1.234375 4.359375 -1.332031 4.671875 -1.53125 C 4.992188 -1.726562 5.15625 -1.972656 5.15625 -2.265625 C 5.15625 -2.617188 5 -2.894531 4.6875 -3.09375 C 4.375 -3.289062 3.875 -3.441406 3.1875 -3.546875 C 1.46875 -3.796875 0.609375 -4.597656 0.609375 -5.953125 C 0.609375 -6.453125 0.734375 -6.882812 0.984375 -7.25 C 1.242188 -7.613281 1.597656 -7.890625 2.046875 -8.078125 C 2.492188 -8.273438 2.992188 -8.375 3.546875 -8.375 C 4.046875 -8.375 4.515625 -8.296875 4.953125 -8.140625 C 5.390625 -7.992188 5.753906 -7.800781 6.046875 -7.5625 C 6.265625 -7.382812 6.375 -7.175781 6.375 -6.9375 C 6.375 -6.757812 6.304688 -6.597656 6.171875 -6.453125 C 6.046875 -6.316406 5.890625 -6.25 5.703125 -6.25 C 5.585938 -6.25 5.484375 -6.285156 5.390625 -6.359375 C 5.179688 -6.523438 4.894531 -6.675781 4.53125 -6.8125 C 4.164062 -6.945312 3.835938 -7.015625 3.546875 -7.015625 C 3.054688 -7.015625 2.675781 -6.921875 2.40625 -6.734375 C 2.132812 -6.554688 2 -6.316406 2 -6.015625 C 2 -5.679688 2.132812 -5.425781 2.40625 -5.25 C 2.6875 -5.070312 3.128906 -4.929688 3.734375 -4.828125 C 4.410156 -4.703125 4.945312 -4.546875 5.34375 -4.359375 C 5.75 -4.179688 6.054688 -3.929688 6.265625 -3.609375 C 6.472656 -3.296875 6.578125 -2.875 6.578125 -2.34375 C 6.578125 -1.851562 6.4375 -1.421875 6.15625 -1.046875 C 5.875 -0.671875 5.5 -0.378906 5.03125 -0.171875 C 4.570312 0.0234375 4.078125 0.125 3.546875 0.125 Z M 3.546875 0.125" transform="translate(118.029 251.274)"/></g></g></g><g fill="#FFF"><g><g><path d="M 5.5625 -1.359375 C 5.757812 -1.359375 5.925781 -1.285156 6.0625 -1.140625 C 6.207031 -1.003906 6.28125 -0.847656 6.28125 -0.671875 C 6.28125 -0.472656 6.207031 -0.3125 6.0625 -0.1875 C 5.925781 -0.0625 5.757812 0 5.5625 0 L 1.609375 0 C 1.398438 0 1.226562 -0.0664062 1.09375 -0.203125 C 0.957031 -0.335938 0.890625 -0.507812 0.890625 -0.71875 L 0.890625 -7.53125 C 0.890625 -7.738281 0.957031 -7.910156 1.09375 -8.046875 C 1.226562 -8.191406 1.398438 -8.265625 1.609375 -8.265625 L 5.5625 -8.265625 C 5.757812 -8.265625 5.925781 -8.195312 6.0625 -8.0625 C 6.207031 -7.9375 6.28125 -7.769531 6.28125 -7.5625 C 6.28125 -7.363281 6.210938 -7.203125 6.078125 -7.078125 C 5.941406 -6.960938 5.769531 -6.90625 5.5625 -6.90625 L 2.359375 -6.90625 L 2.359375 -4.890625 L 5.03125 -4.890625 C 5.226562 -4.890625 5.394531 -4.820312 5.53125 -4.6875 C 5.675781 -4.5625 5.75 -4.398438 5.75 -4.203125 C 5.75 -4.003906 5.679688 -3.84375 5.546875 -3.71875 C 5.410156 -3.601562 5.238281 -3.546875 5.03125 -3.546875 L 2.359375 -3.546875 L 2.359375 -1.359375 Z M 5.5625 -1.359375" transform="translate(131.694 251.274)"/></g></g></g><g fill="#FFF"><g><g><path d="M 7.046875 -1.078125 C 7.140625 -0.953125 7.1875 -0.8125 7.1875 -0.65625 C 7.1875 -0.445312 7.109375 -0.273438 6.953125 -0.140625 C 6.804688 -0.00390625 6.644531 0.0625 6.46875 0.0625 C 6.25 0.0625 6.0625 -0.0390625 5.90625 -0.25 L 3.796875 -3.046875 L 1.75 -0.265625 C 1.59375 -0.046875 1.398438 0.0625 1.171875 0.0625 C 0.992188 0.0625 0.84375 0 0.71875 -0.125 C 0.59375 -0.25 0.53125 -0.394531 0.53125 -0.5625 C 0.53125 -0.738281 0.585938 -0.898438 0.703125 -1.046875 L 2.984375 -4.125 L 0.703125 -7.15625 C 0.597656 -7.28125 0.546875 -7.421875 0.546875 -7.578125 C 0.546875 -7.773438 0.617188 -7.941406 0.765625 -8.078125 C 0.921875 -8.222656 1.09375 -8.296875 1.28125 -8.296875 C 1.5 -8.296875 1.691406 -8.191406 1.859375 -7.984375 L 3.921875 -5.21875 L 5.953125 -7.921875 C 6.035156 -8.035156 6.125 -8.117188 6.21875 -8.171875 C 6.320312 -8.234375 6.425781 -8.265625 6.53125 -8.265625 C 6.707031 -8.265625 6.863281 -8.195312 7 -8.0625 C 7.132812 -7.925781 7.203125 -7.773438 7.203125 -7.609375 C 7.203125 -7.460938 7.148438 -7.320312 7.046875 -7.1875 L 4.75 -4.15625 Z M 7.046875 -1.078125" transform="translate(140.1 251.274)"/></g></g></g><g fill="#FFF"><g><g><path d="M 4.296875 -8.265625 C 4.691406 -8.265625 5.070312 -8.140625 5.4375 -7.890625 C 5.800781 -7.648438 6.09375 -7.328125 6.3125 -6.921875 C 6.53125 -6.523438 6.640625 -6.085938 6.640625 -5.609375 C 6.640625 -5.128906 6.53125 -4.6875 6.3125 -4.28125 C 6.09375 -3.875 5.800781 -3.550781 5.4375 -3.3125 C 5.070312 -3.070312 4.691406 -2.953125 4.296875 -2.953125 L 2.234375 -2.953125 L 2.234375 -0.71875 C 2.234375 -0.507812 2.171875 -0.335938 2.046875 -0.203125 C 1.921875 -0.0664062 1.757812 0 1.5625 0 C 1.363281 0 1.203125 -0.0664062 1.078125 -0.203125 C 0.953125 -0.335938 0.890625 -0.507812 0.890625 -0.71875 L 0.890625 -7.53125 C 0.890625 -7.738281 0.957031 -7.910156 1.09375 -8.046875 C 1.226562 -8.191406 1.398438 -8.265625 1.609375 -8.265625 Z M 4.296875 -4.296875 C 4.441406 -4.296875 4.585938 -4.359375 4.734375 -4.484375 C 4.878906 -4.609375 4.992188 -4.769531 5.078125 -4.96875 C 5.171875 -5.164062 5.21875 -5.378906 5.21875 -5.609375 C 5.21875 -5.828125 5.171875 -6.035156 5.078125 -6.234375 C 4.992188 -6.429688 4.878906 -6.59375 4.734375 -6.71875 C 4.585938 -6.84375 4.441406 -6.90625 4.296875 -6.90625 L 2.234375 -6.90625 L 2.234375 -4.296875 Z M 4.296875 -4.296875" transform="translate(149.484 251.274)"/></g></g></g><g fill="#FFF"><g><g><path d="M 5.4375 -1.375 C 5.644531 -1.375 5.816406 -1.304688 5.953125 -1.171875 C 6.085938 -1.046875 6.15625 -0.882812 6.15625 -0.6875 C 6.15625 -0.488281 6.085938 -0.320312 5.953125 -0.1875 C 5.816406 -0.0625 5.644531 0 5.4375 0 L 1.609375 0 C 1.398438 0 1.226562 -0.0664062 1.09375 -0.203125 C 0.957031 -0.335938 0.890625 -0.507812 0.890625 -0.71875 L 0.890625 -7.53125 C 0.890625 -7.738281 0.957031 -7.910156 1.09375 -8.046875 C 1.238281 -8.191406 1.421875 -8.265625 1.640625 -8.265625 C 1.835938 -8.265625 2.003906 -8.191406 2.140625 -8.046875 C 2.285156 -7.910156 2.359375 -7.738281 2.359375 -7.53125 L 2.359375 -1.375 Z M 5.4375 -1.375" transform="translate(158.256 251.274)"/></g></g></g><g fill="#FFF"><g><g><path d="M 8.484375 -4.125 C 8.484375 -3.351562 8.304688 -2.640625 7.953125 -1.984375 C 7.609375 -1.335938 7.128906 -0.820312 6.515625 -0.4375 C 5.910156 -0.0625 5.226562 0.125 4.46875 0.125 C 3.707031 0.125 3.019531 -0.0625 2.40625 -0.4375 C 1.800781 -0.820312 1.328125 -1.335938 0.984375 -1.984375 C 0.640625 -2.640625 0.46875 -3.351562 0.46875 -4.125 C 0.46875 -4.90625 0.640625 -5.617188 0.984375 -6.265625 C 1.328125 -6.921875 1.800781 -7.4375 2.40625 -7.8125 C 3.019531 -8.1875 3.707031 -8.375 4.46875 -8.375 C 5.226562 -8.375 5.910156 -8.1875 6.515625 -7.8125 C 7.128906 -7.4375 7.609375 -6.921875 7.953125 -6.265625 C 8.304688 -5.617188 8.484375 -4.90625 8.484375 -4.125 Z M 6.953125 -4.125 C 6.953125 -4.65625 6.84375 -5.132812 6.625 -5.5625 C 6.414062 -5.988281 6.117188 -6.328125 5.734375 -6.578125 C 5.359375 -6.828125 4.9375 -6.953125 4.46875 -6.953125 C 3.988281 -6.953125 3.5625 -6.828125 3.1875 -6.578125 C 2.8125 -6.335938 2.519531 -6 2.3125 -5.5625 C 2.101562 -5.132812 2 -4.65625 2 -4.125 C 2 -3.601562 2.101562 -3.125 2.3125 -2.6875 C 2.519531 -2.257812 2.8125 -1.921875 3.1875 -1.671875 C 3.5625 -1.421875 3.988281 -1.296875 4.46875 -1.296875 C 4.9375 -1.296875 5.359375 -1.421875 5.734375 -1.671875 C 6.117188 -1.921875 6.414062 -2.257812 6.625 -2.6875 C 6.84375 -3.125 6.953125 -3.601562 6.953125 -4.125 Z M 6.953125 -4.125" transform="translate(166.544 251.274)"/></g></g></g><g fill="#FFF"><g><g><path d="M 7.359375 -1.15625 C 7.460938 -1.09375 7.539062 -1.007812 7.59375 -0.90625 C 7.65625 -0.800781 7.6875 -0.695312 7.6875 -0.59375 C 7.6875 -0.445312 7.640625 -0.316406 7.546875 -0.203125 C 7.429688 -0.0546875 7.25 0.015625 7 0.015625 C 6.8125 0.015625 6.640625 -0.03125 6.484375 -0.125 C 5.921875 -0.445312 5.640625 -1.101562 5.640625 -2.09375 C 5.640625 -2.375 5.546875 -2.597656 5.359375 -2.765625 C 5.171875 -2.929688 4.90625 -3.015625 4.5625 -3.015625 L 2.359375 -3.015625 L 2.359375 -0.71875 C 2.359375 -0.507812 2.300781 -0.335938 2.1875 -0.203125 C 2.070312 -0.0664062 1.921875 0 1.734375 0 C 1.503906 0 1.304688 -0.0664062 1.140625 -0.203125 C 0.972656 -0.335938 0.890625 -0.507812 0.890625 -0.71875 L 0.890625 -7.53125 C 0.890625 -7.738281 0.957031 -7.910156 1.09375 -8.046875 C 1.226562 -8.191406 1.398438 -8.265625 1.609375 -8.265625 L 5 -8.265625 C 5.40625 -8.265625 5.789062 -8.148438 6.15625 -7.921875 C 6.519531 -7.703125 6.804688 -7.398438 7.015625 -7.015625 C 7.234375 -6.628906 7.34375 -6.195312 7.34375 -5.71875 C 7.34375 -5.320312 7.238281 -4.9375 7.03125 -4.5625 C 6.820312 -4.195312 6.546875 -3.90625 6.203125 -3.6875 C 6.703125 -3.332031 6.972656 -2.863281 7.015625 -2.28125 C 7.035156 -2.15625 7.046875 -2.035156 7.046875 -1.921875 C 7.085938 -1.679688 7.125 -1.503906 7.15625 -1.390625 C 7.1875 -1.285156 7.253906 -1.207031 7.359375 -1.15625 Z M 4.9375 -4.21875 C 5.082031 -4.21875 5.222656 -4.285156 5.359375 -4.421875 C 5.492188 -4.554688 5.601562 -4.734375 5.6875 -4.953125 C 5.769531 -5.179688 5.8125 -5.425781 5.8125 -5.6875 C 5.8125 -5.90625 5.769531 -6.109375 5.6875 -6.296875 C 5.601562 -6.484375 5.492188 -6.628906 5.359375 -6.734375 C 5.222656 -6.847656 5.082031 -6.90625 4.9375 -6.90625 L 2.359375 -6.90625 L 2.359375 -4.21875 Z M 4.9375 -4.21875" transform="translate(177.155 251.274)"/></g></g></g><g fill="#FFF"><g><g><path d="M 5.5625 -1.359375 C 5.757812 -1.359375 5.925781 -1.285156 6.0625 -1.140625 C 6.207031 -1.003906 6.28125 -0.847656 6.28125 -0.671875 C 6.28125 -0.472656 6.207031 -0.3125 6.0625 -0.1875 C 5.925781 -0.0625 5.757812 0 5.5625 0 L 1.609375 0 C 1.398438 0 1.226562 -0.0664062 1.09375 -0.203125 C 0.957031 -0.335938 0.890625 -0.507812 0.890625 -0.71875 L 0.890625 -7.53125 C 0.890625 -7.738281 0.957031 -7.910156 1.09375 -8.046875 C 1.226562 -8.191406 1.398438 -8.265625 1.609375 -8.265625 L 5.5625 -8.265625 C 5.757812 -8.265625 5.925781 -8.195312 6.0625 -8.0625 C 6.207031 -7.9375 6.28125 -7.769531 6.28125 -7.5625 C 6.28125 -7.363281 6.210938 -7.203125 6.078125 -7.078125 C 5.941406 -6.960938 5.769531 -6.90625 5.5625 -6.90625 L 2.359375 -6.90625 L 2.359375 -4.890625 L 5.03125 -4.890625 C 5.226562 -4.890625 5.394531 -4.820312 5.53125 -4.6875 C 5.675781 -4.5625 5.75 -4.398438 5.75 -4.203125 C 5.75 -4.003906 5.679688 -3.84375 5.546875 -3.71875 C 5.410156 -3.601562 5.238281 -3.546875 5.03125 -3.546875 L 2.359375 -3.546875 L 2.359375 -1.359375 Z M 5.5625 -1.359375" transform="translate(186.917 251.274)"/></g></g></g><g fill="#FFF"><g><g><path d="M 6.3125 -8.265625 C 6.519531 -8.265625 6.691406 -8.195312 6.828125 -8.0625 C 6.960938 -7.9375 7.03125 -7.773438 7.03125 -7.578125 C 7.03125 -7.367188 6.960938 -7.203125 6.828125 -7.078125 C 6.691406 -6.960938 6.519531 -6.90625 6.3125 -6.90625 L 4.453125 -6.90625 L 4.453125 -0.71875 C 4.453125 -0.507812 4.378906 -0.335938 4.234375 -0.203125 C 4.085938 -0.0664062 3.90625 0 3.6875 0 C 3.457031 0 3.269531 -0.0664062 3.125 -0.203125 C 2.988281 -0.335938 2.921875 -0.507812 2.921875 -0.71875 L 2.921875 -6.90625 L 1.078125 -6.90625 C 0.859375 -6.90625 0.679688 -6.96875 0.546875 -7.09375 C 0.421875 -7.21875 0.359375 -7.378906 0.359375 -7.578125 C 0.359375 -7.773438 0.425781 -7.9375 0.5625 -8.0625 C 0.695312 -8.195312 0.867188 -8.265625 1.078125 -8.265625 Z M 6.3125 -8.265625" transform="translate(200.286 251.274)"/></g></g></g><g fill="#FFF"><g><g><path d="M 6.859375 -8.265625 C 7.085938 -8.265625 7.265625 -8.195312 7.390625 -8.0625 C 7.523438 -7.925781 7.59375 -7.75 7.59375 -7.53125 L 7.59375 -0.71875 C 7.59375 -0.507812 7.519531 -0.335938 7.375 -0.203125 C 7.238281 -0.0664062 7.0625 0 6.84375 0 C 6.644531 0 6.472656 -0.0664062 6.328125 -0.203125 C 6.191406 -0.335938 6.125 -0.507812 6.125 -0.71875 L 6.125 -3.46875 L 2.359375 -3.46875 L 2.359375 -0.71875 C 2.359375 -0.507812 2.28125 -0.335938 2.125 -0.203125 C 1.976562 -0.0664062 1.804688 0 1.609375 0 C 1.398438 0 1.226562 -0.0664062 1.09375 -0.203125 C 0.957031 -0.335938 0.890625 -0.507812 0.890625 -0.71875 L 0.890625 -7.53125 C 0.890625 -7.738281 0.957031 -7.910156 1.09375 -8.046875 C 1.238281 -8.191406 1.421875 -8.265625 1.640625 -8.265625 C 1.835938 -8.265625 2.003906 -8.191406 2.140625 -8.046875 C 2.285156 -7.910156 2.359375 -7.738281 2.359375 -7.53125 L 2.359375 -4.828125 L 6.125 -4.828125 L 6.125 -7.53125 C 6.125 -7.738281 6.195312 -7.910156 6.34375 -8.046875 C 6.5 -8.191406 6.671875 -8.265625 6.859375 -8.265625 Z M 6.859375 -8.265625" transform="translate(209.33 251.274)"/></g></g></g><g fill="#FFF"><g><g><path d="M 5.5625 -1.359375 C 5.757812 -1.359375 5.925781 -1.285156 6.0625 -1.140625 C 6.207031 -1.003906 6.28125 -0.847656 6.28125 -0.671875 C 6.28125 -0.472656 6.207031 -0.3125 6.0625 -0.1875 C 5.925781 -0.0625 5.757812 0 5.5625 0 L 1.609375 0 C 1.398438 0 1.226562 -0.0664062 1.09375 -0.203125 C 0.957031 -0.335938 0.890625 -0.507812 0.890625 -0.71875 L 0.890625 -7.53125 C 0.890625 -7.738281 0.957031 -7.910156 1.09375 -8.046875 C 1.226562 -8.191406 1.398438 -8.265625 1.609375 -8.265625 L 5.5625 -8.265625 C 5.757812 -8.265625 5.925781 -8.195312 6.0625 -8.0625 C 6.207031 -7.9375 6.28125 -7.769531 6.28125 -7.5625 C 6.28125 -7.363281 6.210938 -7.203125 6.078125 -7.078125 C 5.941406 -6.960938 5.769531 -6.90625 5.5625 -6.90625 L 2.359375 -6.90625 L 2.359375 -4.890625 L 5.03125 -4.890625 C 5.226562 -4.890625 5.394531 -4.820312 5.53125 -4.6875 C 5.675781 -4.5625 5.75 -4.398438 5.75 -4.203125 C 5.75 -4.003906 5.679688 -3.84375 5.546875 -3.71875 C 5.410156 -3.601562 5.238281 -3.546875 5.03125 -3.546875 L 2.359375 -3.546875 L 2.359375 -1.359375 Z M 5.5625 -1.359375" transform="translate(219.468 251.274)"/></g></g></g><g fill="#FFF"><g><g><path d="M 10.171875 -8.296875 C 10.359375 -8.296875 10.53125 -8.222656 10.6875 -8.078125 C 10.851562 -7.929688 10.9375 -7.75 10.9375 -7.53125 C 10.9375 -7.457031 10.925781 -7.378906 10.90625 -7.296875 L 8.578125 -0.453125 C 8.523438 -0.316406 8.441406 -0.207031 8.328125 -0.125 C 8.210938 -0.0507812 8.082031 -0.0078125 7.9375 0 C 7.800781 0 7.664062 -0.0351562 7.53125 -0.109375 C 7.40625 -0.191406 7.3125 -0.304688 7.25 -0.453125 L 5.5625 -4.265625 L 3.875 -0.453125 C 3.8125 -0.304688 3.710938 -0.191406 3.578125 -0.109375 C 3.453125 -0.0351562 3.320312 0 3.1875 0 C 3.039062 -0.0078125 2.910156 -0.0507812 2.796875 -0.125 C 2.679688 -0.207031 2.597656 -0.316406 2.546875 -0.453125 L 0.21875 -7.296875 C 0.195312 -7.378906 0.1875 -7.457031 0.1875 -7.53125 C 0.1875 -7.75 0.265625 -7.929688 0.421875 -8.078125 C 0.585938 -8.222656 0.769531 -8.296875 0.96875 -8.296875 C 1.125 -8.296875 1.265625 -8.253906 1.390625 -8.171875 C 1.515625 -8.085938 1.601562 -7.972656 1.65625 -7.828125 L 3.40625 -2.5 L 4.9375 -6.1875 C 5 -6.320312 5.085938 -6.429688 5.203125 -6.515625 C 5.328125 -6.597656 5.460938 -6.632812 5.609375 -6.625 C 5.765625 -6.632812 5.898438 -6.597656 6.015625 -6.515625 C 6.128906 -6.429688 6.21875 -6.320312 6.28125 -6.1875 L 7.734375 -2.53125 L 9.46875 -7.828125 C 9.519531 -7.972656 9.609375 -8.085938 9.734375 -8.171875 C 9.867188 -8.253906 10.015625 -8.296875 10.171875 -8.296875 Z M 10.171875 -8.296875" transform="translate(232.838 251.274)"/></g></g></g><g fill="#FFF"><g><g><path d="M 8.484375 -4.125 C 8.484375 -3.351562 8.304688 -2.640625 7.953125 -1.984375 C 7.609375 -1.335938 7.128906 -0.820312 6.515625 -0.4375 C 5.910156 -0.0625 5.226562 0.125 4.46875 0.125 C 3.707031 0.125 3.019531 -0.0625 2.40625 -0.4375 C 1.800781 -0.820312 1.328125 -1.335938 0.984375 -1.984375 C 0.640625 -2.640625 0.46875 -3.351562 0.46875 -4.125 C 0.46875 -4.90625 0.640625 -5.617188 0.984375 -6.265625 C 1.328125 -6.921875 1.800781 -7.4375 2.40625 -7.8125 C 3.019531 -8.1875 3.707031 -8.375 4.46875 -8.375 C 5.226562 -8.375 5.910156 -8.1875 6.515625 -7.8125 C 7.128906 -7.4375 7.609375 -6.921875 7.953125 -6.265625 C 8.304688 -5.617188 8.484375 -4.90625 8.484375 -4.125 Z M 6.953125 -4.125 C 6.953125 -4.65625 6.84375 -5.132812 6.625 -5.5625 C 6.414062 -5.988281 6.117188 -6.328125 5.734375 -6.578125 C 5.359375 -6.828125 4.9375 -6.953125 4.46875 -6.953125 C 3.988281 -6.953125 3.5625 -6.828125 3.1875 -6.578125 C 2.8125 -6.335938 2.519531 -6 2.3125 -5.5625 C 2.101562 -5.132812 2 -4.65625 2 -4.125 C 2 -3.601562 2.101562 -3.125 2.3125 -2.6875 C 2.519531 -2.257812 2.8125 -1.921875 3.1875 -1.671875 C 3.5625 -1.421875 3.988281 -1.296875 4.46875 -1.296875 C 4.9375 -1.296875 5.359375 -1.421875 5.734375 -1.671875 C 6.117188 -1.921875 6.414062 -2.257812 6.625 -2.6875 C 6.84375 -3.125 6.953125 -3.601562 6.953125 -4.125 Z M 6.953125 -4.125" transform="translate(245.618 251.274)"/></g></g></g><g fill="#FFF"><g><g><path d="M 7.359375 -1.15625 C 7.460938 -1.09375 7.539062 -1.007812 7.59375 -0.90625 C 7.65625 -0.800781 7.6875 -0.695312 7.6875 -0.59375 C 7.6875 -0.445312 7.640625 -0.316406 7.546875 -0.203125 C 7.429688 -0.0546875 7.25 0.015625 7 0.015625 C 6.8125 0.015625 6.640625 -0.03125 6.484375 -0.125 C 5.921875 -0.445312 5.640625 -1.101562 5.640625 -2.09375 C 5.640625 -2.375 5.546875 -2.597656 5.359375 -2.765625 C 5.171875 -2.929688 4.90625 -3.015625 4.5625 -3.015625 L 2.359375 -3.015625 L 2.359375 -0.71875 C 2.359375 -0.507812 2.300781 -0.335938 2.1875 -0.203125 C 2.070312 -0.0664062 1.921875 0 1.734375 0 C 1.503906 0 1.304688 -0.0664062 1.140625 -0.203125 C 0.972656 -0.335938 0.890625 -0.507812 0.890625 -0.71875 L 0.890625 -7.53125 C 0.890625 -7.738281 0.957031 -7.910156 1.09375 -8.046875 C 1.226562 -8.191406 1.398438 -8.265625 1.609375 -8.265625 L 5 -8.265625 C 5.40625 -8.265625 5.789062 -8.148438 6.15625 -7.921875 C 6.519531 -7.703125 6.804688 -7.398438 7.015625 -7.015625 C 7.234375 -6.628906 7.34375 -6.195312 7.34375 -5.71875 C 7.34375 -5.320312 7.238281 -4.9375 7.03125 -4.5625 C 6.820312 -4.195312 6.546875 -3.90625 6.203125 -3.6875 C 6.703125 -3.332031 6.972656 -2.863281 7.015625 -2.28125 C 7.035156 -2.15625 7.046875 -2.035156 7.046875 -1.921875 C 7.085938 -1.679688 7.125 -1.503906 7.15625 -1.390625 C 7.1875 -1.285156 7.253906 -1.207031 7.359375 -1.15625 Z M 4.9375 -4.21875 C 5.082031 -4.21875 5.222656 -4.285156 5.359375 -4.421875 C 5.492188 -4.554688 5.601562 -4.734375 5.6875 -4.953125 C 5.769531 -5.179688 5.8125 -5.425781 5.8125 -5.6875 C 5.8125 -5.90625 5.769531 -6.109375 5.6875 -6.296875 C 5.601562 -6.484375 5.492188 -6.628906 5.359375 -6.734375 C 5.222656 -6.847656 5.082031 -6.90625 4.9375 -6.90625 L 2.359375 -6.90625 L 2.359375 -4.21875 Z M 4.9375 -4.21875" transform="translate(256.229 251.274)"/></g></g></g><g fill="#FFF"><g><g><path d="M 5.4375 -1.375 C 5.644531 -1.375 5.816406 -1.304688 5.953125 -1.171875 C 6.085938 -1.046875 6.15625 -0.882812 6.15625 -0.6875 C 6.15625 -0.488281 6.085938 -0.320312 5.953125 -0.1875 C 5.816406 -0.0625 5.644531 0 5.4375 0 L 1.609375 0 C 1.398438 0 1.226562 -0.0664062 1.09375 -0.203125 C 0.957031 -0.335938 0.890625 -0.507812 0.890625 -0.71875 L 0.890625 -7.53125 C 0.890625 -7.738281 0.957031 -7.910156 1.09375 -8.046875 C 1.238281 -8.191406 1.421875 -8.265625 1.640625 -8.265625 C 1.835938 -8.265625 2.003906 -8.191406 2.140625 -8.046875 C 2.285156 -7.910156 2.359375 -7.738281 2.359375 -7.53125 L 2.359375 -1.375 Z M 5.4375 -1.375" transform="translate(265.99 251.274)"/></g></g></g><g fill="#FFF"><g><g><path d="M 4.421875 -8.265625 C 5.160156 -8.265625 5.796875 -8.078125 6.328125 -7.703125 C 6.859375 -7.335938 7.265625 -6.84375 7.546875 -6.21875 C 7.828125 -5.59375 7.96875 -4.894531 7.96875 -4.125 C 7.96875 -3.351562 7.828125 -2.65625 7.546875 -2.03125 C 7.265625 -1.40625 6.859375 -0.910156 6.328125 -0.546875 C 5.796875 -0.179688 5.160156 0 4.421875 0 L 1.609375 0 C 1.398438 0 1.226562 -0.0664062 1.09375 -0.203125 C 0.957031 -0.335938 0.890625 -0.507812 0.890625 -0.71875 L 0.890625 -7.53125 C 0.890625 -7.738281 0.957031 -7.910156 1.09375 -8.046875 C 1.226562 -8.191406 1.398438 -8.265625 1.609375 -8.265625 Z M 4.3125 -1.359375 C 5.019531 -1.359375 5.546875 -1.617188 5.890625 -2.140625 C 6.242188 -2.660156 6.421875 -3.320312 6.421875 -4.125 C 6.421875 -4.925781 6.242188 -5.585938 5.890625 -6.109375 C 5.535156 -6.640625 5.007812 -6.90625 4.3125 -6.90625 L 2.359375 -6.90625 L 2.359375 -1.359375 Z M 4.3125 -1.359375" transform="translate(274.279 251.274)"/></g></g></g><g fill="#FFF"><g><g><path d="M 0.21875 -15.21875 L 0.21875 -18.828125 L 15.953125 -18.828125 L 15.953125 -15.21875 L 10.1875 -15.21875 L 10.1875 0 L 5.9375 0 L 5.9375 -15.21875 Z M 0.21875 -15.21875" transform="translate(118.624 230.568)"/></g></g></g><g fill="#FFF"><g><g><path d="M 18.453125 0 L 13.640625 0 L 10.65625 -5.375 L 6.3125 -5.375 L 6.3125 0 L 2.078125 0 L 2.078125 -18.828125 L 10.25 -18.828125 C 12.695312 -18.828125 14.59375 -18.253906 15.9375 -17.109375 C 17.289062 -15.972656 17.96875 -14.363281 17.96875 -12.28125 C 17.96875 -10.832031 17.664062 -9.59375 17.0625 -8.5625 C 16.457031 -7.53125 15.582031 -6.75 14.4375 -6.21875 Z M 6.3125 -15.296875 L 6.3125 -8.921875 L 10.25 -8.921875 C 11.425781 -8.921875 12.332031 -9.191406 12.96875 -9.734375 C 13.601562 -10.285156 13.921875 -11.09375 13.921875 -12.15625 C 13.921875 -13.195312 13.601562 -13.976562 12.96875 -14.5 C 12.332031 -15.03125 11.425781 -15.296875 10.25 -15.296875 Z M 6.3125 -15.296875" transform="translate(136.16 230.568)"/></g></g></g><g fill="#FFF"><g><g><path d="M 20.515625 0 L 15.96875 0 L 14.5 -3.65625 L 5.78125 -3.65625 L 4.296875 0 L -0.078125 0 L 8.09375 -18.828125 L 12.484375 -18.828125 Z M 10.171875 -14.390625 L 7.1875 -7.078125 L 13.125 -7.078125 Z M 10.171875 -14.390625" transform="translate(157.003 230.568)"/></g></g></g><g fill="#FFF"><g><g><path d="M 7.390625 0 L 0 -18.828125 L 4.578125 -18.828125 L 9.703125 -4.625 L 14.875 -18.828125 L 19.25 -18.828125 L 11.78125 0 Z M 7.390625 0" transform="translate(178.788 230.568)"/></g></g></g><g fill="#FFF"><g><g><path d="M 2.078125 0 L 2.078125 -18.828125 L 6.3125 -18.828125 L 6.3125 0 Z M 2.078125 0" transform="translate(199.416 230.568)"/></g></g></g><g fill="#FFF"><g><g><path d="M 11.96875 -11 L 19.515625 0 L 14.4375 0 L 9.015625 -7.71875 L 6.3125 -4.734375 L 6.3125 0 L 2.078125 0 L 2.078125 -18.828125 L 6.3125 -18.828125 L 6.3125 -10.0625 L 14.125 -18.828125 L 19.0625 -18.828125 Z M 11.96875 -11" transform="translate(209.206 230.568)"/></g></g></g><g fill="#FFF"><g><g><path d="M 10.84375 -19.125 C 12.71875 -19.125 14.425781 -18.703125 15.96875 -17.859375 C 17.507812 -17.015625 18.722656 -15.851562 19.609375 -14.375 C 20.503906 -12.894531 20.953125 -11.25 20.953125 -9.4375 C 20.953125 -7.625 20.503906 -5.972656 19.609375 -4.484375 C 18.722656 -3.003906 17.507812 -1.835938 15.96875 -0.984375 C 14.425781 -0.128906 12.71875 0.296875 10.84375 0.296875 C 8.957031 0.296875 7.242188 -0.128906 5.703125 -0.984375 C 4.160156 -1.835938 2.941406 -3.003906 2.046875 -4.484375 C 1.160156 -5.960938 0.71875 -7.613281 0.71875 -9.4375 C 0.71875 -11.25 1.160156 -12.894531 2.046875 -14.375 C 2.941406 -15.851562 4.15625 -17.015625 5.6875 -17.859375 C 7.21875 -18.703125 8.9375 -19.125 10.84375 -19.125 Z M 10.890625 -15.40625 C 9.847656 -15.40625 8.878906 -15.140625 7.984375 -14.609375 C 7.085938 -14.085938 6.378906 -13.367188 5.859375 -12.453125 C 5.335938 -11.535156 5.078125 -10.53125 5.078125 -9.4375 C 5.078125 -8.320312 5.34375 -7.304688 5.875 -6.390625 C 6.40625 -5.484375 7.113281 -4.757812 8 -4.21875 C 8.882812 -3.6875 9.847656 -3.421875 10.890625 -3.421875 C 11.929688 -3.421875 12.882812 -3.679688 13.75 -4.203125 C 14.625 -4.734375 15.316406 -5.457031 15.828125 -6.375 C 16.335938 -7.300781 16.59375 -8.320312 16.59375 -9.4375 C 16.59375 -10.53125 16.335938 -11.535156 15.828125 -12.453125 C 15.316406 -13.367188 14.625 -14.085938 13.75 -14.609375 C 12.882812 -15.140625 11.929688 -15.40625 10.890625 -15.40625 Z M 10.890625 -15.40625" transform="translate(230.4 230.568)"/></g></g></g><g clip-path="url(#a)"><path fill="#FFF" d="M 192.722656 136.070312 L 197.714844 138.402344 L 181.214844 139.976562 L 178.082031 138.261719 Z M 239.996094 137.632812 C 240.316406 139.753906 232.359375 142.792969 221.085938 145.132812 L 192.125 163.648438 L 184.664062 163.121094 L 201.570312 147.78125 C 186.570312 148.78125 169.144531 148.34375 169.144531 148.34375 C 169.144531 148.34375 172.847656 147.09375 178.296875 145.410156 L 170.273438 137.933594 L 174.453125 137.324219 L 185.34375 143.292969 C 190.375 141.828125 195.992188 140.292969 201.300781 139.058594 L 189.6875 133.632812 L 194.351562 131.820312 L 212.109375 136.976562 C 220.59375 135.753906 228.21875 135.300781 233.339844 135.59375 C 231.191406 134.75 226.238281 134.503906 223.96875 134.433594 C 218.851562 117.695312 203.273438 105.519531 184.847656 105.519531 C 163.285156 105.519531 145.617188 122.199219 144.0625 143.355469 L 170.492188 139.398438 L 172.054688 140.851562 L 144.050781 143.527344 C 143.984375 144.472656 143.949219 145.429688 143.949219 146.390625 C 143.949219 147.851562 144.03125 149.289062 144.183594 150.707031 L 171.367188 146.636719 L 167.863281 148.589844 C 167.835938 148.515625 173.195312 149.328125 173.195312 149.328125 L 124.859375 153.949219 L 144.691406 154.15625 C 145.121094 156.394531 145.738281 158.566406 146.519531 160.660156 L 193.800781 153.582031 L 190.011719 157.019531 L 138.613281 161.933594 L 138.609375 161.933594 L 147.160156 162.292969 C 153.367188 176.964844 167.90625 187.261719 184.847656 187.261719 C 207.4375 187.261719 225.75 168.964844 225.75 146.390625 C 225.75 146.371094 225.746094 146.351562 225.746094 146.328125 C 243.941406 141.542969 239.996094 137.632812 239.996094 137.632812"/></g></svg>